<?xml version="1.0" encoding="utf-8"?>
<svg xmlns="http://www.w3.org/2000/svg" viewBox="121.5072 139.4949 290.3189 339.8136" width="290.3189px" height="339.8136px">
  <g transform="matrix(3.6116952896118164, 0, 0, 3.6116952896118164, 86.0801010131836, 128.81515502929688)" style="">
    <path d="M 12.601 14.858 L 23.18 14.858 L 23.18 5.111 L 29.837 5.111 L 29.837 14.858 L 70.136 14.858 L 70.136 5.943 L 76.793 5.943 L 76.793 14.858 L 87.492 14.858 L 87.492 94.623 L 12.601 94.623 Z" style="fill: rgb(71, 159, 97);"/>
    <g>
      <path d="M 82.691 12.297 L 79.052 12.297 L 79.052 9.457 C 79.052 5.873 76.531 2.957 73.431 2.957 C 70.327 2.957 67.802 5.873 67.802 9.457 L 67.802 12.297 L 32.201 12.297 L 32.201 9.457 C 32.201 5.873 29.676 2.957 26.572 2.957 C 23.468 2.957 20.941 5.873 20.941 9.457 L 20.941 12.297 L 17.312 12.297 C 13.176 12.297 9.812 15.661 9.812 19.797 L 9.812 36.273 L 9.809 36.273 L 9.809 89.544 C 9.809 93.68 13.173 97.044 17.309 97.044 L 82.688 97.044 C 86.824 97.044 90.188 93.68 90.188 89.544 L 90.188 41.008 L 90.192 41.008 L 90.192 19.797 C 90.191 15.661 86.827 12.297 82.691 12.297 Z M 70.803 15.295 L 70.803 9.457 C 70.803 7.56 72.007 5.957 73.432 5.957 C 74.853 5.957 76.053 7.56 76.053 9.457 L 76.151 15.295 L 70.803 15.295 Z M 23.941 15.29 L 23.941 9.457 C 23.941 7.56 25.146 5.957 26.572 5.957 C 27.997 5.957 29.201 7.56 29.201 9.457 L 29.278 15.297 L 23.941 15.29 Z M 87.188 89.543 C 87.188 92.024 85.169 94.043 82.688 94.043 L 17.309 94.043 C 14.828 94.043 12.809 92.024 12.809 89.543 L 12.814 36.272 L 87.188 36.249 L 87.188 89.543 Z M 87.189 36.249 L 12.813 36.272 L 12.813 19.797 C 12.813 17.316 14.832 15.297 17.313 15.297 L 20.942 15.297 C 21.036 15.284 32.213 15.295 32.202 15.297 L 67.804 15.297 L 79.054 15.297 L 82.693 15.297 C 85.174 15.297 87.193 17.316 87.193 19.797 L 87.193 36.272 L 87.189 36.249 Z" style="fill: rgb(71, 159, 97);"/>
    </g>
    <path d="M 58.911 37.493 C 55.558 37.493 52.846 40.186 52.846 43.509 C 52.846 46.834 55.558 49.526 58.911 49.526 C 62.26 49.526 64.974 46.834 64.974 43.509 C 64.974 40.186 62.26 37.493 58.911 37.493 Z M 40.059 44.18 C 39.018 44.163 38.101 44.794 37.485 45.299 L 29.156 52.082 C 28.024 53.001 27.871 54.651 28.798 55.776 C 29.73 56.898 31.375 57.072 32.506 56.148 L 39.684 50.291 L 45.212 51.432 L 36.552 64.7 L 30.445 72.366 C 26.125 72.196 22.139 71.686 18.394 71.343 C 16.631 71.183 15.086 72.446 14.924 74.194 C 14.763 75.941 16.034 77.537 17.799 77.652 C 22.189 77.947 26.589 78.226 30.982 78.519 C 32.113 78.595 32.944 78.574 33.737 77.967 C 34.082 77.703 34.334 77.369 34.608 77.025 C 36.214 75.01 39.425 70.97 39.425 70.97 L 48.167 77.084 L 43.549 85.908 C 42.759 87.413 43.342 89.256 44.856 90.038 C 46.373 90.82 48.231 90.244 49.02 88.74 L 54.747 77.813 C 54.951 77.423 55.025 76.998 55.083 76.594 C 55.249 75.47 54.851 74.311 53.856 73.605 L 45.608 67.748 L 52.408 57.427 L 55.441 62.773 C 55.891 63.562 56.719 64.125 57.701 64.15 C 61.562 64.246 69.278 64.425 69.278 64.425 C 70.74 64.461 71.955 63.321 71.992 61.87 C 72.03 60.418 70.88 59.212 69.416 59.177 L 60.356 58.961 L 55.76 50.861 C 55.003 49.53 52.762 46.744 50.804 46.341 L 40.516 44.218 C 40.363 44.185 40.209 44.181 40.059 44.18 Z" style="stroke-width: 1px; fill: rgb(255, 255, 255); transform-origin: 43.45px 63.94px 0px;" fill-opacity="1" fill-rule="nonzero" stroke="none" transform="matrix(0.966114, -0.258114, 0.258114, 0.966114, 0, 0)"/>
    <ellipse style="fill: rgb(255, 172, 0); paint-order: stroke markers; fill-rule: nonzero;" cx="72.744" cy="33.544" rx="8.357" ry="8.357"/>
  </g>
</svg>